<svg width="27" height="27" viewBox="0 0 27 27" fill="none" xmlns="http://www.w3.org/2000/svg">
<path fill-rule="evenodd" clip-rule="evenodd" d="M13.5 19.4062C16.7619 19.4062 19.4062 16.7619 19.4062 13.5C19.4062 10.2381 16.7619 7.59375 13.5 7.59375C10.2381 7.59375 7.59375 10.2381 7.59375 13.5C7.59375 16.7619 10.2381 19.4062 13.5 19.4062ZM13.5 17.7188C15.83 17.7188 17.7188 15.83 17.7188 13.5C17.7188 11.17 15.83 9.28125 13.5 9.28125C11.17 9.28125 9.28125 11.17 9.28125 13.5C9.28125 15.83 11.17 17.7188 13.5 17.7188Z" fill="white"/>
<path d="M21.0938 7.59375C21.5597 7.59375 21.9375 7.21599 21.9375 6.75C21.9375 6.28401 21.5597 5.90625 21.0938 5.90625C20.6278 5.90625 20.25 6.28401 20.25 6.75C20.25 7.21599 20.6278 7.59375 21.0938 7.59375Z" fill="white"/>
<path fill-rule="evenodd" clip-rule="evenodd" d="M7.59375 0C3.39984 0 0 3.39984 0 7.59375V19.4062C0 23.6002 3.39984 27 7.59375 27H19.4062C23.6002 27 27 23.6002 27 19.4062V7.59375C27 3.39984 23.6002 0 19.4062 0H7.59375ZM19.4062 1.6875H7.59375C4.33182 1.6875 1.6875 4.33182 1.6875 7.59375V19.4062C1.6875 22.6682 4.33182 25.3125 7.59375 25.3125H19.4062C22.6682 25.3125 25.3125 22.6682 25.3125 19.4062V7.59375C25.3125 4.33182 22.6682 1.6875 19.4062 1.6875Z" fill="white"/>
</svg>
