<svg width="30" height="23" viewBox="0 0 30 23" fill="none" xmlns="http://www.w3.org/2000/svg">
<path fill-rule="evenodd" clip-rule="evenodd" d="M29.9436 2.09671L24.9442 21.0857C24.4915 22.8051 22.4489 23.4963 21.0011 22.6197C19.8156 21.9019 17.35 20.4845 12.5125 17.9398C11.5502 17.4337 11.2055 16.1147 12.0312 15.2222L14.4404 12.618L10.4895 14.7365C9.21456 15.4201 7.63805 15.8184 6.01055 15.4859C3.80158 15.0346 1.72762 14.2253 1.10159 13.9706C-0.474398 13.3294 -0.259718 11.2869 1.11381 10.7375L27.6378 0.127866C28.9411 -0.393426 30.295 0.761919 29.9436 2.09671ZM1.75839 12.2806C1.68872 12.3085 1.68609 12.4029 1.75559 12.4312C2.35077 12.6734 4.30778 13.435 6.35872 13.854C7.49282 14.0857 8.65489 13.8193 9.67091 13.2745L21.16 7.11387C21.4126 6.97838 21.6656 7.29197 21.4722 7.50099L13.2941 16.341C13.257 16.3811 13.2703 16.4458 13.3191 16.4715C18.173 19.0248 20.6714 20.4597 21.8974 21.202C22.4163 21.5162 23.1423 21.248 23.2945 20.6698L28.2939 1.68079C28.2956 1.67415 28.2889 1.6684 28.2824 1.671L1.75839 12.2806Z" fill="white"/>
</svg>
