<svg width="27" height="27" viewBox="0 0 27 27" fill="none" xmlns="http://www.w3.org/2000/svg">
<path d="M20.1937 9.69203C20.2218 9.27877 19.9095 8.92098 19.4963 8.8929C19.083 8.86481 18.7252 9.17706 18.6972 9.59032C18.5857 11.2298 17.8393 12.2703 17.1247 12.9113C16.4537 13.5132 15.6083 13.9686 14.6976 14.033C14.5022 14.0468 14.2999 14.0521 14.101 14.0519V9.64117C14.101 9.22695 13.7652 8.89117 13.351 8.89117H12.126C11.7118 8.89117 11.376 9.22695 11.376 9.64117C11.376 10.0554 11.7118 10.3912 12.126 10.3912H12.601V17.0557C10.0766 16.1397 8.80265 14.6926 8.1384 13.3438C7.37896 11.8017 7.3748 10.3063 7.3748 9.64117C7.3748 9.22695 7.03901 8.89117 6.6248 8.89117C6.21059 8.89117 5.8748 9.22695 5.8748 9.64117V9.65052C5.87478 10.3547 5.87473 12.1424 6.79273 14.0065C7.73143 15.9126 9.58921 17.8195 13.1513 18.8033C13.377 18.8656 13.6189 18.819 13.8052 18.6771C13.9916 18.5353 14.101 18.3145 14.101 18.0804V15.5519C14.3297 15.552 14.5681 15.5459 14.8034 15.5292C15.1502 15.5047 15.5477 15.4545 15.9114 15.339C16.5097 15.7764 17.1393 16.4179 17.6743 17.0498C17.9825 17.4139 18.247 17.7602 18.442 18.0376C18.5397 18.1765 18.6171 18.2941 18.6727 18.385C18.7181 18.4593 18.7386 18.4991 18.7447 18.5111C18.7471 18.5156 18.7473 18.5162 18.7461 18.5131C18.8959 18.8993 19.3303 19.091 19.7165 18.9413C20.1027 18.7916 20.2944 18.3571 20.1447 17.9709C20.064 17.7627 19.8716 17.4628 19.6691 17.1748C19.4472 16.8593 19.1551 16.4776 18.8191 16.0807C18.4091 15.5962 17.9141 15.0659 17.3852 14.6024C17.618 14.4471 17.8708 14.2571 18.1263 14.0279C19.0727 13.1789 20.0509 11.794 20.1937 9.69203Z" fill="white"/>
<path fill-rule="evenodd" clip-rule="evenodd" d="M25.1053 25.1053C27 23.2107 27 20.1613 27 14.0625V12.9375C27 6.83871 27 3.7893 25.1053 1.89465C23.2107 0 20.1613 0 14.0625 0H12.9375C6.83871 0 3.7893 0 1.89465 1.89465C0 3.7893 0 6.83871 0 12.9375V14.0625C0 20.1613 0 23.2107 1.89465 25.1053C3.7893 27 6.83871 27 12.9375 27H14.0625C20.1613 27 23.2107 27 25.1053 25.1053ZM25.4252 20.9806C25.2085 22.5924 24.8054 23.4961 24.1507 24.1507C23.4961 24.8054 22.5924 25.2085 20.9806 25.4252C19.3299 25.6471 17.1501 25.65 14.0625 25.65H12.9375C9.84994 25.65 7.67007 25.6471 6.01941 25.4252C4.40758 25.2085 3.50392 24.8054 2.84924 24.1507C2.19456 23.4961 1.7915 22.5924 1.57479 20.9806C1.35287 19.3299 1.35 17.1501 1.35 14.0625V12.9375C1.35 9.84994 1.35287 7.67007 1.57479 6.01941C1.7915 4.40757 2.19456 3.50393 2.84925 2.84925C3.50393 2.19456 4.40757 1.7915 6.01941 1.57479C7.67007 1.35287 9.84994 1.35 12.9375 1.35H14.0625C17.1501 1.35 19.3299 1.35287 20.9806 1.57479C22.5924 1.7915 23.4961 2.19457 24.1507 2.84925C24.8054 3.50394 25.2085 4.40758 25.4252 6.01941C25.6471 7.67007 25.65 9.84994 25.65 12.9375V14.0625C25.65 17.1501 25.6471 19.3299 25.4252 20.9806Z" fill="white"/>
</svg>
